<?xml version="1.0" encoding="utf-8"?>
<!-- Generator: Adobe Illustrator 27.1.1, SVG Export Plug-In . SVG Version: 6.00 Build 0)  -->
<svg version="1.1" id="Слой_1" xmlns="http://www.w3.org/2000/svg" xmlns:xlink="http://www.w3.org/1999/xlink" x="0px" y="0px"
	 viewBox="0 0 425.2 265.7" style="enable-background:new 0 0 425.2 265.7;" xml:space="preserve">
<style type="text/css">
	.st0{fill:#F1A73F;}
	.st1{fill:#FFFFFF;}
</style>
<path class="st0" d="M368.5,265.7H56.7C25.4,265.7,0,240.4,0,209.1V56.7C0,25.4,25.4,0,56.7,0h311.8c31.3,0,56.7,25.4,56.7,56.7
	v152.4C425.2,240.4,399.8,265.7,368.5,265.7z"/>
<g>
	<path class="st1" d="M19.5,104.1h14.6c12.3,0,18.6,5.4,18.6,15.4c0,6-2.1,8.5-3.7,9.9v0.3c2.4,1.6,5.6,4.2,5.6,12.4
		c0,11.7-8.1,16.8-14.1,16.8H19.5V104.1z M26.2,152.2h8.8c6.4,0,12.7-2.4,12.7-11c0-6.7-4.1-9.5-8-10.3v-0.3
		c4.2-1.2,6.7-4.2,6.7-9.1c0-5.6-4-10.6-10.5-10.6h-9.6V152.2z M27.5,129.9v-17.7h8.3c5.8,0,9.2,4.2,9.2,9.2c0,6.1-4,8.5-9.7,8.5
		L27.5,129.9L27.5,129.9z M27.5,131.4h7.8c6.3,0,11,3.1,11,9.8c0,7.7-5.6,9.6-11.4,9.6h-7.4V131.4z M33.7,124.9h1.9
		c1.8,0,3.4-1.5,3.4-3.8c0-2.6-2-3.6-3.5-3.6h-1.8V124.9z M33.7,145.7h1.9c2.1,0,4.5-1.3,4.5-4.5c0-3.1-2.4-4.6-4.6-4.6h-1.8
		C33.7,136.6,33.7,145.7,33.7,145.7z"/>
	<path class="st1" d="M84.3,104.1l17.9,54.8H87.1l-1.5-5.2H72.3l-1.5,5.2H56l17.7-54.8H84.3z M67.9,147.5h22.3l1.5,4.7h1.5
		l-13.5-41.7h-1.3l-13.4,41.7h1.5L67.9,147.5z M79.1,112.9l10.6,33.2H68.3l10.5-33.2L79.1,112.9L79.1,112.9z M75.9,141.4h6.2
		l-3.1-10.6L75.9,141.4z"/>
	<path class="st1" d="M144.1,144h7.7v-39.9h14.7v54.8h-59.6v-54.8h14.7V144h7.7v-39.9h14.7V144z M159.8,152.2v-41.3h-1.3v39.9h-21.1
		v-39.9H136v39.9h-21.1v-39.9h-1.3v41.3L159.8,152.2L159.8,152.2z"/>
	<path class="st1" d="M216.3,103.3c13.5,0,23.9,12.7,23.9,28.5s-10.4,28.5-23.9,28.5s-23.9-12.7-23.9-28.5
		C192.4,116,202.8,103.3,216.3,103.3z M216.3,152c9.7,0,17.1-8.7,17.1-20.1c0-11.4-7.4-20.1-17.1-20.1s-17,8.7-17,20.1
		S206.6,152,216.3,152z M216.3,113.4c8.9,0,15.7,8.1,15.7,18.5s-6.8,18.5-15.7,18.5c-8.9,0-15.7-8.1-15.7-18.5
		C200.6,121.4,207.4,113.4,216.3,113.4z M216.3,143c5.2,0,9.2-4.8,9.2-11.1c0-6.3-4-11.1-9.2-11.1s-9.2,4.8-9.2,11.1
		C207.1,138.2,211.1,143,216.3,143z"/>
	<path class="st1" d="M243.5,104.1h33.6V119h-9.4v39.9h-14.7V119h-9.4V104.1z M248.6,112.3h11v39.9h1.3v-39.9h11v-1.4h-23.2
		L248.6,112.3L248.6,112.3z"/>
	<path class="st1" d="M275.1,158.9V144h4.8l12.6-39.9h10.5l13.7,39.9h4.8v14.9H275.1z M280.2,152.2h36v-1.4H312l-13.6-39.9h-1.1
		l-12.6,39.9h-4.4L280.2,152.2L280.2,152.2z M310.6,150.7h-24.7l11.9-37.5L310.6,150.7z M297.9,132.4l-3.3,11.7h7.1L297.9,132.4z"/>
	<path class="st1" d="M328.1,104.1h24.8v14.7h-10.1v5.6h9.4v14.2h-9.4v5.6h10.8v14.7h-25.5V104.1L328.1,104.1z M336.1,112.3h11.6
		v-1.4h-12.9v41.3h13.6v-1.4h-12.3v-18.5h11v-1.4h-11V112.3z"/>
	<path class="st1" d="M386,104.1l17.9,54.8h-15.3l-8.2-26.5l-8.1,26.5h-14.9l17.8-54.8H386z M366.5,152.2h1.5l12.5-38.9h0.2
		l12.6,38.9h1.5l-13.5-41.3h-1.3L366.5,152.2z"/>
</g>
<path class="st1" d="M210.4,51.3c-48.6,0.6-97.4-0.8-123.7-6v17h123.7h123.7v-17C307.8,50.5,259,51.9,210.4,51.3z"/>
<path class="st1" d="M210.4,203.3H86.7v17c26.2-5.2,75.1-6.6,123.7-6c48.6-0.6,97.4,0.8,123.7,6v-17H210.4z"/>
</svg>
