<?xml version="1.0" encoding="utf-8"?>
<!-- Generator: Adobe Illustrator 27.1.1, SVG Export Plug-In . SVG Version: 6.00 Build 0)  -->
<svg version="1.1" baseProfile="tiny" id="Слой_1"
	 xmlns="http://www.w3.org/2000/svg" xmlns:xlink="http://www.w3.org/1999/xlink" x="0px" y="0px" viewBox="0 0 1280 800"
	 overflow="visible" xml:space="preserve">
<rect fill="#F1A73F" width="1280" height="800"/>
<g>
	<path fill="#FFFFFF" d="M58.63,313.48h43.96c37.16,0,56.14,16.25,56.14,46.39c0,18.13-6.39,25.67-10.99,29.67v0.94
		c7.19,4.71,16.78,12.71,16.78,37.2c0,35.08-24.38,50.62-42.36,50.62H58.63V313.48z M78.81,458.05h26.37
		c19.18,0,38.16-7.3,38.16-33.2c0-20.25-12.39-28.73-24.18-31.08v-0.94c12.79-3.53,20.18-12.71,20.18-27.31
		c0-16.72-11.99-31.79-31.57-31.79H78.81V458.05z M82.8,391.18v-53.21h24.97c17.58,0,27.57,12.71,27.57,27.55
		c0,18.37-11.99,25.67-29.17,25.67H82.8z M82.8,395.42h23.38c18.98,0,33.17,9.42,33.17,29.43c0,23.08-16.98,28.96-34.17,28.96H82.8
		V395.42z M101.58,376.11h5.59c5.39,0,10.19-4.47,10.19-11.3c0-7.77-5.99-10.83-10.39-10.83h-5.39V376.11z M101.58,438.51h5.59
		c6.19,0,13.59-4,13.59-13.42c0-9.42-7.19-13.89-13.79-13.89h-5.39V438.51z"/>
	<path fill="#FFFFFF" d="M253.83,313.48l53.95,164.82h-45.55l-4.6-15.54h-39.96l-4.6,15.54h-44.56l53.35-164.82H253.83z
		 M204.28,443.92h67.13l4.6,14.13h4.4l-40.56-125.5h-4l-40.36,125.5h4.4L204.28,443.92z M238.05,339.85l31.97,99.83h-64.33
		l31.57-99.83H238.05z M228.46,425.79h18.58l-9.39-32.02L228.46,425.79z"/>
	<path fill="#FFFFFF" d="M433.65,433.56h23.18V313.48h44.36V478.3H321.76V313.48h44.36v120.08h23.18V313.48h44.35V433.56z
		 M481,458.05V333.73h-4v120.08h-63.54V333.73h-4v120.08h-63.54V333.73h-4v124.32H481z"/>
	<path fill="#FFFFFF" d="M651.02,311.12c40.56,0,71.93,38.14,71.93,85.94c0,47.8-31.37,85.94-71.93,85.94
		c-40.56,0-71.93-38.14-71.93-85.94C579.09,349.27,610.46,311.12,651.02,311.12z M651.02,457.58c29.17,0,51.35-26.14,51.35-60.51
		c0-34.38-22.18-60.51-51.35-60.51c-29.17,0-51.15,26.14-51.15,60.51C599.87,431.44,621.85,457.58,651.02,457.58z M651.02,341.26
		c26.77,0,47.35,24.25,47.35,55.8c0,31.55-20.58,55.8-47.35,55.8c-26.77,0-47.15-24.25-47.15-55.8
		C603.87,365.52,624.25,341.26,651.02,341.26z M651.02,430.5c15.58,0,27.77-14.36,27.77-33.44c0-19.07-12.19-33.44-27.77-33.44
		c-15.58,0-27.57,14.36-27.57,33.44C623.45,416.14,635.44,430.5,651.02,430.5z"/>
	<path fill="#FFFFFF" d="M732.94,313.48h101.1v44.74h-28.37V478.3h-44.36V358.22h-28.37V313.48z M748.52,337.97h32.97v120.08h4
		V337.97h32.97v-4.24h-69.93V337.97z"/>
	<path fill="#FFFFFF" d="M828.04,478.3v-44.74h14.38l37.96-120.08h31.57l41.16,120.08h14.59v44.74H828.04z M843.63,458.05h108.49
		v-4.24h-12.99l-40.96-120.08h-3.4l-37.96,120.08h-13.19V458.05z M935.14,453.81h-74.33l35.76-113.02L935.14,453.81z M896.77,398.48
		l-9.99,35.08h21.38L896.77,398.48z"/>
	<path fill="#FFFFFF" d="M987.68,313.48h74.72v44.27h-30.37v16.72h28.37v42.85h-28.37v16.72h32.37v44.27h-76.72V313.48z
		 M1011.86,337.97h34.96v-4.24h-38.96v124.32h40.96v-4.24h-36.96v-55.8h32.97v-4.24h-32.97V337.97z"/>
	<path fill="#FFFFFF" d="M1162.1,313.48l53.95,164.82h-45.95l-24.58-79.82l-24.38,79.82h-44.75l53.55-164.82H1162.1z
		 M1103.36,458.05h4.4l37.56-117.02h0.6l37.96,117.02h4.4l-40.56-124.32h-4L1103.36,458.05z"/>
</g>
<path fill="#FFFFFF" d="M633.36,154.31c-146.31,1.78-293.23-2.41-372.26-18.11v51.06h372.26h372.26V136.2
	C926.6,151.9,779.68,156.09,633.36,154.31z"/>
<path fill="#FFFFFF" d="M633.36,612.12H261.11v51.06c79.02-15.7,225.94-19.89,372.26-18.11c146.31-1.78,293.23,2.41,372.26,18.11
	v-51.06H633.36z"/>
</svg>
